<svg width="32" height="32" viewBox="0 0 512 512" fill="none" xmlns="http://www.w3.org/2000/svg">
  <rect x="38.4" y="38.4" width="435.2" height="435.2" rx="92.16" fill="none" stroke="#333" stroke-width="5.12" opacity="0.3"/>
  <rect x="69.12" y="69.12" width="373.76" height="373.76" rx="81.92" fill="none" stroke="#444" stroke-width="5.12" opacity="0.5"/>
  <rect x="99.84" y="99.84" width="312.32" height="312.32" rx="71.68" fill="none" stroke="#555" stroke-width="5.12" opacity="0.7"/>
  <rect x="133.12" y="133.12" width="245.76" height="245.76" rx="51.2" fill="#1a1a1a"/>
  <g transform="translate(152, 160)">
    <rect x="0" y="0" width="208" height="56" rx="9.6" fill="#fff"/>
    <text x="104" y="40" text-anchor="middle" font-family="Arial, sans-serif" font-size="32" font-weight="bold" fill="#1a1a1a">THE BOARD</text>
    <rect x="8" y="72" width="56" height="56" rx="8" fill="#fff"/>
    <rect x="72" y="72" width="56" height="56" rx="8" fill="#666"/>
    <rect x="136" y="72" width="56" height="56" rx="8" fill="#fff"/>
    <rect x="8" y="136" width="56" height="56" rx="8" fill="#666"/>
    <rect x="72" y="136" width="56" height="56" rx="8" fill="#fff"/>
    <rect x="136" y="136" width="56" height="56" rx="8" fill="#666"/>
  </g>
</svg>
