<svg width="32" height="32" viewBox="0 0 32 32" fill="none" xmlns="http://www.w3.org/2000/svg">
  <!-- Shield/crest shape -->
  <path d="M 16 3 L 6 8 L 6 16 Q 6 24 16 29 Q 26 24 26 16 L 26 8 Z"
        fill="url(#crest-gradient)"
        stroke="#D4AF37"
        stroke-width="1.5"/>

  <defs>
    <linearGradient id="crest-gradient" x1="0" y1="0" x2="0" y2="1">
      <stop offset="0%" stop-color="#5A1528"/>
      <stop offset="50%" stop-color="#8B1538"/>
      <stop offset="100%" stop-color="#5A1528"/>
    </linearGradient>
    <linearGradient id="curtain-gradient" x1="0" y1="0" x2="0" y2="1">
      <stop offset="0%" stop-color="#D4AF37"/>
      <stop offset="100%" stop-color="#B8941F"/>
    </linearGradient>
  </defs>

  <!-- Left curtain drape inside crest -->
  <path d="M 10 10 Q 11 13 10 16 Q 11 19 10 22"
        fill="none"
        stroke="url(#curtain-gradient)"
        stroke-width="1.5"
        stroke-linecap="round"/>
  <path d="M 11.5 10 Q 12.5 13 11.5 16 Q 12.5 19 11.5 22"
        fill="none"
        stroke="#FFE066"
        stroke-width="1"
        stroke-linecap="round"
        opacity="0.7"/>

  <!-- Right curtain drape inside crest -->
  <path d="M 22 10 Q 21 13 22 16 Q 21 19 22 22"
        fill="none"
        stroke="url(#curtain-gradient)"
        stroke-width="1.5"
        stroke-linecap="round"/>
  <path d="M 20.5 10 Q 19.5 13 20.5 16 Q 19.5 19 20.5 22"
        fill="none"
        stroke="#FFE066"
        stroke-width="1"
        stroke-linecap="round"
        opacity="0.7"/>

  <!-- Top curtain rod -->
  <line x1="10" y1="10" x2="22" y2="10" stroke="#FFE066" stroke-width="1.5"/>
  <circle cx="10" cy="10" r="1" fill="#FFE066"/>
  <circle cx="22" cy="10" r="1" fill="#FFE066"/>

  <!-- Center 'G' monogram -->
  <text x="16" y="18"
        font-family="serif"
        font-size="9"
        font-weight="700"
        fill="#D4AF37"
        text-anchor="middle"
        letter-spacing="0.5">G</text>

  <!-- Decorative elements at top of shield -->
  <circle cx="16" cy="6" r="1.2" fill="#D4AF37"/>

  <!-- Bottom banner scroll -->
  <path d="M 8 24 Q 8 25 9 25 L 23 25 Q 24 25 24 24 L 24 23 Q 24 22 23 22 L 9 22 Q 8 22 8 23 Z"
        fill="#D4AF37"
        opacity="0.9"/>

  <!-- Guild/Theatre text on banner (optional) -->
  <text x="16" y="24.5"
        font-family="serif"
        font-size="3.5"
        font-weight="600"
        fill="#1A1F3A"
        text-anchor="middle">THEATRE</text>
</svg>
